<mxfile host="Electron" agent="Mozilla/5.0 (Macintosh; Intel Mac OS X 10_15_7) AppleWebKit/537.36 (KHTML, like Gecko) draw.io/26.0.16 Chrome/132.0.6834.196 Electron/34.2.0 Safari/537.36" version="26.0.16">
  <diagram name="Page-1" id="ksBmgHpKepAOsZ8i7ARq">
    <mxGraphModel dx="1430" dy="837" grid="1" gridSize="10" guides="1" tooltips="1" connect="1" arrows="1" fold="1" page="1" pageScale="1" pageWidth="850" pageHeight="1100" math="0" shadow="0">
      <root>
        <mxCell id="0" />
        <mxCell id="1" parent="0" />
        <mxCell id="I7WBoEx8GMAR0eP6BGQ3-1" value="AWS Cloud" style="points=[[0,0],[0.25,0],[0.5,0],[0.75,0],[1,0],[1,0.25],[1,0.5],[1,0.75],[1,1],[0.75,1],[0.5,1],[0.25,1],[0,1],[0,0.75],[0,0.5],[0,0.25]];outlineConnect=0;gradientColor=none;html=1;whiteSpace=wrap;fontSize=12;fontStyle=0;container=1;pointerEvents=0;collapsible=0;recursiveResize=0;shape=mxgraph.aws4.group;grIcon=mxgraph.aws4.group_aws_cloud_alt;strokeColor=#232F3E;fillColor=none;verticalAlign=top;align=left;spacingLeft=30;fontColor=#232F3E;dashed=0;" parent="1" vertex="1">
          <mxGeometry x="140" y="150" width="1230" height="660" as="geometry" />
        </mxCell>
        <mxCell id="I7WBoEx8GMAR0eP6BGQ3-34" value="File processing" style="fillColor=none;strokeColor=#5A6C86;dashed=1;verticalAlign=top;fontStyle=0;fontColor=#5A6C86;whiteSpace=wrap;html=1;" parent="I7WBoEx8GMAR0eP6BGQ3-1" vertex="1">
          <mxGeometry x="430" y="81" width="610" height="310" as="geometry" />
        </mxCell>
        <mxCell id="I7WBoEx8GMAR0eP6BGQ3-2" value="Raw input files&lt;div&gt;&lt;b&gt;Amazon Simple&amp;nbsp;&lt;/b&gt;&lt;/div&gt;&lt;div&gt;&lt;b&gt;Storage Service&lt;/b&gt;&lt;/div&gt;" style="sketch=0;points=[[0,0,0],[0.25,0,0],[0.5,0,0],[0.75,0,0],[1,0,0],[0,1,0],[0.25,1,0],[0.5,1,0],[0.75,1,0],[1,1,0],[0,0.25,0],[0,0.5,0],[0,0.75,0],[1,0.25,0],[1,0.5,0],[1,0.75,0]];outlineConnect=0;fontColor=#232F3E;fillColor=#7AA116;strokeColor=#ffffff;dashed=0;verticalLabelPosition=bottom;verticalAlign=top;align=center;html=1;fontSize=12;fontStyle=0;aspect=fixed;shape=mxgraph.aws4.resourceIcon;resIcon=mxgraph.aws4.s3;" parent="I7WBoEx8GMAR0eP6BGQ3-1" vertex="1">
          <mxGeometry x="246" y="371" width="78" height="78" as="geometry" />
        </mxCell>
        <mxCell id="I7WBoEx8GMAR0eP6BGQ3-36" style="edgeStyle=orthogonalEdgeStyle;rounded=0;orthogonalLoop=1;jettySize=auto;html=1;" parent="I7WBoEx8GMAR0eP6BGQ3-1" source="I7WBoEx8GMAR0eP6BGQ3-4" edge="1">
          <mxGeometry relative="1" as="geometry">
            <mxPoint x="284.52941176470586" y="154.70588235294122" as="targetPoint" />
          </mxGeometry>
        </mxCell>
        <mxCell id="6i6F7RLfbkFAWz0QjOFE-2" style="edgeStyle=orthogonalEdgeStyle;rounded=0;orthogonalLoop=1;jettySize=auto;html=1;entryX=0;entryY=0.5;entryDx=0;entryDy=0;" parent="I7WBoEx8GMAR0eP6BGQ3-1" source="I7WBoEx8GMAR0eP6BGQ3-4" target="I7WBoEx8GMAR0eP6BGQ3-34" edge="1">
          <mxGeometry relative="1" as="geometry" />
        </mxCell>
        <mxCell id="I7WBoEx8GMAR0eP6BGQ3-4" value="Process user requests&lt;div&gt;&lt;b&gt;AWS Lambda&lt;/b&gt;&lt;/div&gt;" style="sketch=0;points=[[0,0,0],[0.25,0,0],[0.5,0,0],[0.75,0,0],[1,0,0],[0,1,0],[0.25,1,0],[0.5,1,0],[0.75,1,0],[1,1,0],[0,0.25,0],[0,0.5,0],[0,0.75,0],[1,0.25,0],[1,0.5,0],[1,0.75,0]];outlineConnect=0;fontColor=#232F3E;fillColor=#ED7100;strokeColor=#ffffff;dashed=0;verticalLabelPosition=bottom;verticalAlign=top;align=center;html=1;fontSize=12;fontStyle=0;aspect=fixed;shape=mxgraph.aws4.resourceIcon;resIcon=mxgraph.aws4.lambda;" parent="I7WBoEx8GMAR0eP6BGQ3-1" vertex="1">
          <mxGeometry x="246" y="198" width="78" height="78" as="geometry" />
        </mxCell>
        <mxCell id="I7WBoEx8GMAR0eP6BGQ3-6" value="User interface operations&lt;div&gt;&lt;b&gt;Amazon API Gateway&lt;/b&gt;&lt;/div&gt;" style="sketch=0;points=[[0,0,0],[0.25,0,0],[0.5,0,0],[0.75,0,0],[1,0,0],[0,1,0],[0.25,1,0],[0.5,1,0],[0.75,1,0],[1,1,0],[0,0.25,0],[0,0.5,0],[0,0.75,0],[1,0.25,0],[1,0.5,0],[1,0.75,0]];outlineConnect=0;fontColor=#232F3E;fillColor=#E7157B;strokeColor=#ffffff;dashed=0;verticalLabelPosition=bottom;verticalAlign=top;align=center;html=1;fontSize=12;fontStyle=0;aspect=fixed;shape=mxgraph.aws4.resourceIcon;resIcon=mxgraph.aws4.api_gateway;" parent="I7WBoEx8GMAR0eP6BGQ3-1" vertex="1">
          <mxGeometry x="90" y="198" width="78" height="78" as="geometry" />
        </mxCell>
        <mxCell id="I7WBoEx8GMAR0eP6BGQ3-28" style="edgeStyle=orthogonalEdgeStyle;rounded=0;orthogonalLoop=1;jettySize=auto;html=1;" parent="I7WBoEx8GMAR0eP6BGQ3-1" source="I7WBoEx8GMAR0eP6BGQ3-7" target="I7WBoEx8GMAR0eP6BGQ3-8" edge="1">
          <mxGeometry relative="1" as="geometry" />
        </mxCell>
        <mxCell id="I7WBoEx8GMAR0eP6BGQ3-7" value="&lt;b&gt;Amazon Bedrock&amp;nbsp;&lt;/b&gt;&lt;div&gt;&lt;b&gt;Data Automation&lt;/b&gt;&lt;/div&gt;" style="sketch=0;points=[[0,0,0],[0.25,0,0],[0.5,0,0],[0.75,0,0],[1,0,0],[0,1,0],[0.25,1,0],[0.5,1,0],[0.75,1,0],[1,1,0],[0,0.25,0],[0,0.5,0],[0,0.75,0],[1,0.25,0],[1,0.5,0],[1,0.75,0]];outlineConnect=0;fontColor=#232F3E;fillColor=#01A88D;strokeColor=#ffffff;dashed=0;verticalLabelPosition=bottom;verticalAlign=top;align=center;html=1;fontSize=12;fontStyle=0;aspect=fixed;shape=mxgraph.aws4.resourceIcon;resIcon=mxgraph.aws4.bedrock;" parent="I7WBoEx8GMAR0eP6BGQ3-1" vertex="1">
          <mxGeometry x="470" y="190" width="78" height="78" as="geometry" />
        </mxCell>
        <mxCell id="I7WBoEx8GMAR0eP6BGQ3-8" value="BDA Results&lt;div&gt;&lt;b&gt;Amazon Simple&amp;nbsp;&lt;/b&gt;&lt;/div&gt;&lt;div&gt;&lt;b&gt;Storage Service&lt;/b&gt;&lt;/div&gt;" style="sketch=0;points=[[0,0,0],[0.25,0,0],[0.5,0,0],[0.75,0,0],[1,0,0],[0,1,0],[0.25,1,0],[0.5,1,0],[0.75,1,0],[1,1,0],[0,0.25,0],[0,0.5,0],[0,0.75,0],[1,0.25,0],[1,0.5,0],[1,0.75,0]];outlineConnect=0;fontColor=#232F3E;fillColor=#7AA116;strokeColor=#ffffff;dashed=0;verticalLabelPosition=bottom;verticalAlign=top;align=center;html=1;fontSize=12;fontStyle=0;aspect=fixed;shape=mxgraph.aws4.resourceIcon;resIcon=mxgraph.aws4.s3;" parent="I7WBoEx8GMAR0eP6BGQ3-1" vertex="1">
          <mxGeometry x="620" y="250" width="78" height="78" as="geometry" />
        </mxCell>
        <mxCell id="I7WBoEx8GMAR0eP6BGQ3-30" style="edgeStyle=orthogonalEdgeStyle;rounded=0;orthogonalLoop=1;jettySize=auto;html=1;" parent="I7WBoEx8GMAR0eP6BGQ3-1" source="I7WBoEx8GMAR0eP6BGQ3-9" target="I7WBoEx8GMAR0eP6BGQ3-10" edge="1">
          <mxGeometry relative="1" as="geometry" />
        </mxCell>
        <mxCell id="I7WBoEx8GMAR0eP6BGQ3-9" value="Extract BDA results&lt;div&gt;&lt;b&gt;AWS Lambda&lt;/b&gt;&lt;/div&gt;" style="sketch=0;points=[[0,0,0],[0.25,0,0],[0.5,0,0],[0.75,0,0],[1,0,0],[0,1,0],[0.25,1,0],[0.5,1,0],[0.75,1,0],[1,1,0],[0,0.25,0],[0,0.5,0],[0,0.75,0],[1,0.25,0],[1,0.5,0],[1,0.75,0]];outlineConnect=0;fontColor=#232F3E;fillColor=#ED7100;strokeColor=#ffffff;dashed=0;verticalLabelPosition=bottom;verticalAlign=top;align=center;html=1;fontSize=12;fontStyle=0;aspect=fixed;shape=mxgraph.aws4.resourceIcon;resIcon=mxgraph.aws4.lambda;" parent="I7WBoEx8GMAR0eP6BGQ3-1" vertex="1">
          <mxGeometry x="760" y="190" width="78" height="78" as="geometry" />
        </mxCell>
        <mxCell id="I7WBoEx8GMAR0eP6BGQ3-10" value="Amazon Knowledge Base&amp;nbsp;&lt;div&gt;Data source&lt;div&gt;&lt;b&gt;Amazon Simple&amp;nbsp;&lt;/b&gt;&lt;/div&gt;&lt;div&gt;&lt;b&gt;Storage Service&lt;/b&gt;&lt;/div&gt;&lt;/div&gt;" style="sketch=0;points=[[0,0,0],[0.25,0,0],[0.5,0,0],[0.75,0,0],[1,0,0],[0,1,0],[0.25,1,0],[0.5,1,0],[0.75,1,0],[1,1,0],[0,0.25,0],[0,0.5,0],[0,0.75,0],[1,0.25,0],[1,0.5,0],[1,0.75,0]];outlineConnect=0;fontColor=#232F3E;fillColor=#7AA116;strokeColor=#ffffff;dashed=0;verticalLabelPosition=bottom;verticalAlign=top;align=center;html=1;fontSize=12;fontStyle=0;aspect=fixed;shape=mxgraph.aws4.resourceIcon;resIcon=mxgraph.aws4.s3;" parent="I7WBoEx8GMAR0eP6BGQ3-1" vertex="1">
          <mxGeometry x="910" y="190" width="78" height="78" as="geometry" />
        </mxCell>
        <mxCell id="I7WBoEx8GMAR0eP6BGQ3-11" value="&lt;b&gt;Amazon Bedrock&lt;/b&gt;&lt;div&gt;&lt;b&gt;Knowledge Base&lt;/b&gt;&lt;/div&gt;" style="sketch=0;points=[[0,0,0],[0.25,0,0],[0.5,0,0],[0.75,0,0],[1,0,0],[0,1,0],[0.25,1,0],[0.5,1,0],[0.75,1,0],[1,1,0],[0,0.25,0],[0,0.5,0],[0,0.75,0],[1,0.25,0],[1,0.5,0],[1,0.75,0]];outlineConnect=0;fontColor=#232F3E;fillColor=#01A88D;strokeColor=#ffffff;dashed=0;verticalLabelPosition=bottom;verticalAlign=top;align=center;html=1;fontSize=12;fontStyle=0;aspect=fixed;shape=mxgraph.aws4.resourceIcon;resIcon=mxgraph.aws4.bedrock;" parent="I7WBoEx8GMAR0eP6BGQ3-1" vertex="1">
          <mxGeometry x="1075" y="190" width="78" height="78" as="geometry" />
        </mxCell>
        <mxCell id="I7WBoEx8GMAR0eP6BGQ3-12" value="User authentication&lt;div&gt;&lt;b&gt;Amazon Cognito&lt;/b&gt;&lt;/div&gt;" style="sketch=0;points=[[0,0,0],[0.25,0,0],[0.5,0,0],[0.75,0,0],[1,0,0],[0,1,0],[0.25,1,0],[0.5,1,0],[0.75,1,0],[1,1,0],[0,0.25,0],[0,0.5,0],[0,0.75,0],[1,0.25,0],[1,0.5,0],[1,0.75,0]];outlineConnect=0;fontColor=#232F3E;fillColor=#DD344C;strokeColor=#ffffff;dashed=0;verticalLabelPosition=bottom;verticalAlign=top;align=center;html=1;fontSize=12;fontStyle=0;aspect=fixed;shape=mxgraph.aws4.resourceIcon;resIcon=mxgraph.aws4.cognito;" parent="I7WBoEx8GMAR0eP6BGQ3-1" vertex="1">
          <mxGeometry x="90" y="30" width="78" height="78" as="geometry" />
        </mxCell>
        <mxCell id="I7WBoEx8GMAR0eP6BGQ3-17" value="Job table&lt;div&gt;&lt;b&gt;Amazon DynamoDB&lt;/b&gt;&lt;/div&gt;" style="sketch=0;points=[[0,0,0],[0.25,0,0],[0.5,0,0],[0.75,0,0],[1,0,0],[0,1,0],[0.25,1,0],[0.5,1,0],[0.75,1,0],[1,1,0],[0,0.25,0],[0,0.5,0],[0,0.75,0],[1,0.25,0],[1,0.5,0],[1,0.75,0]];outlineConnect=0;fontColor=#232F3E;fillColor=#C925D1;strokeColor=#ffffff;dashed=0;verticalLabelPosition=bottom;verticalAlign=top;align=center;html=1;fontSize=12;fontStyle=0;aspect=fixed;shape=mxgraph.aws4.resourceIcon;resIcon=mxgraph.aws4.dynamodb;" parent="I7WBoEx8GMAR0eP6BGQ3-1" vertex="1">
          <mxGeometry x="250" y="30" width="78" height="78" as="geometry" />
        </mxCell>
        <mxCell id="I7WBoEx8GMAR0eP6BGQ3-19" style="edgeStyle=orthogonalEdgeStyle;rounded=0;orthogonalLoop=1;jettySize=auto;html=1;entryX=0;entryY=0.5;entryDx=0;entryDy=0;entryPerimeter=0;" parent="I7WBoEx8GMAR0eP6BGQ3-1" source="I7WBoEx8GMAR0eP6BGQ3-6" target="I7WBoEx8GMAR0eP6BGQ3-4" edge="1">
          <mxGeometry relative="1" as="geometry" />
        </mxCell>
        <mxCell id="I7WBoEx8GMAR0eP6BGQ3-24" style="edgeStyle=orthogonalEdgeStyle;rounded=0;orthogonalLoop=1;jettySize=auto;html=1;" parent="I7WBoEx8GMAR0eP6BGQ3-1" source="I7WBoEx8GMAR0eP6BGQ3-6" target="I7WBoEx8GMAR0eP6BGQ3-2" edge="1">
          <mxGeometry relative="1" as="geometry">
            <Array as="points">
              <mxPoint x="207" y="237" />
              <mxPoint x="207" y="410" />
            </Array>
          </mxGeometry>
        </mxCell>
        <mxCell id="I7WBoEx8GMAR0eP6BGQ3-31" style="edgeStyle=orthogonalEdgeStyle;rounded=0;orthogonalLoop=1;jettySize=auto;html=1;entryX=0;entryY=0.5;entryDx=0;entryDy=0;entryPerimeter=0;" parent="I7WBoEx8GMAR0eP6BGQ3-1" target="I7WBoEx8GMAR0eP6BGQ3-11" edge="1">
          <mxGeometry relative="1" as="geometry">
            <mxPoint x="1040" y="229" as="sourcePoint" />
          </mxGeometry>
        </mxCell>
        <mxCell id="I7WBoEx8GMAR0eP6BGQ3-37" style="edgeStyle=orthogonalEdgeStyle;rounded=0;orthogonalLoop=1;jettySize=auto;html=1;entryX=1;entryY=0.5;entryDx=0;entryDy=0;entryPerimeter=0;startArrow=classic;startFill=1;" parent="I7WBoEx8GMAR0eP6BGQ3-1" target="I7WBoEx8GMAR0eP6BGQ3-17" edge="1">
          <mxGeometry relative="1" as="geometry">
            <Array as="points">
              <mxPoint x="740" y="80" />
              <mxPoint x="740" y="69" />
            </Array>
            <mxPoint x="740" y="80" as="sourcePoint" />
          </mxGeometry>
        </mxCell>
        <mxCell id="Cpk--s-93JvUQln1MetP-1" value="BDA Job status&lt;div&gt;&lt;b&gt;Amazon EventBridge&lt;/b&gt;&lt;/div&gt;" style="sketch=0;points=[[0,0,0],[0.25,0,0],[0.5,0,0],[0.75,0,0],[1,0,0],[0,1,0],[0.25,1,0],[0.5,1,0],[0.75,1,0],[1,1,0],[0,0.25,0],[0,0.5,0],[0,0.75,0],[1,0.25,0],[1,0.5,0],[1,0.75,0]];outlineConnect=0;fontColor=#232F3E;fillColor=#E7157B;strokeColor=#ffffff;dashed=0;verticalLabelPosition=bottom;verticalAlign=top;align=center;html=1;fontSize=12;fontStyle=0;aspect=fixed;shape=mxgraph.aws4.resourceIcon;resIcon=mxgraph.aws4.eventbridge;" parent="I7WBoEx8GMAR0eP6BGQ3-1" vertex="1">
          <mxGeometry x="620" y="108" width="78" height="78" as="geometry" />
        </mxCell>
        <mxCell id="Cpk--s-93JvUQln1MetP-2" style="edgeStyle=orthogonalEdgeStyle;rounded=0;orthogonalLoop=1;jettySize=auto;html=1;entryX=0;entryY=0.5;entryDx=0;entryDy=0;entryPerimeter=0;" parent="I7WBoEx8GMAR0eP6BGQ3-1" source="I7WBoEx8GMAR0eP6BGQ3-7" target="Cpk--s-93JvUQln1MetP-1" edge="1">
          <mxGeometry relative="1" as="geometry" />
        </mxCell>
        <mxCell id="Cpk--s-93JvUQln1MetP-3" style="edgeStyle=orthogonalEdgeStyle;rounded=0;orthogonalLoop=1;jettySize=auto;html=1;entryX=0;entryY=0.5;entryDx=0;entryDy=0;entryPerimeter=0;" parent="I7WBoEx8GMAR0eP6BGQ3-1" source="Cpk--s-93JvUQln1MetP-1" target="I7WBoEx8GMAR0eP6BGQ3-9" edge="1">
          <mxGeometry relative="1" as="geometry" />
        </mxCell>
        <mxCell id="6i6F7RLfbkFAWz0QjOFE-3" style="edgeStyle=orthogonalEdgeStyle;rounded=0;orthogonalLoop=1;jettySize=auto;html=1;entryX=1;entryY=0.5;entryDx=0;entryDy=0;entryPerimeter=0;" parent="I7WBoEx8GMAR0eP6BGQ3-1" source="I7WBoEx8GMAR0eP6BGQ3-9" target="I7WBoEx8GMAR0eP6BGQ3-8" edge="1">
          <mxGeometry relative="1" as="geometry">
            <Array as="points">
              <mxPoint x="729" y="240" />
              <mxPoint x="729" y="289" />
            </Array>
          </mxGeometry>
        </mxCell>
        <mxCell id="po_nBzVE3X979Q4hHAxm-3" style="edgeStyle=orthogonalEdgeStyle;rounded=0;orthogonalLoop=1;jettySize=auto;html=1;" edge="1" parent="I7WBoEx8GMAR0eP6BGQ3-1" source="po_nBzVE3X979Q4hHAxm-1">
          <mxGeometry relative="1" as="geometry">
            <mxPoint x="1114.3913043478265" y="307.04347826086973" as="targetPoint" />
          </mxGeometry>
        </mxCell>
        <mxCell id="po_nBzVE3X979Q4hHAxm-1" value="Question Answering&lt;div&gt;&lt;b&gt;AWS Lambda&lt;/b&gt;&lt;/div&gt;" style="sketch=0;points=[[0,0,0],[0.25,0,0],[0.5,0,0],[0.75,0,0],[1,0,0],[0,1,0],[0.25,1,0],[0.5,1,0],[0.75,1,0],[1,1,0],[0,0.25,0],[0,0.5,0],[0,0.75,0],[1,0.25,0],[1,0.5,0],[1,0.75,0]];outlineConnect=0;fontColor=#232F3E;fillColor=#ED7100;strokeColor=#ffffff;dashed=0;verticalLabelPosition=bottom;verticalAlign=top;align=center;html=1;fontSize=12;fontStyle=0;aspect=fixed;shape=mxgraph.aws4.resourceIcon;resIcon=mxgraph.aws4.lambda;" vertex="1" parent="I7WBoEx8GMAR0eP6BGQ3-1">
          <mxGeometry x="246" y="530" width="78" height="78" as="geometry" />
        </mxCell>
        <mxCell id="po_nBzVE3X979Q4hHAxm-2" style="edgeStyle=orthogonalEdgeStyle;rounded=0;orthogonalLoop=1;jettySize=auto;html=1;entryX=0;entryY=0.5;entryDx=0;entryDy=0;entryPerimeter=0;" edge="1" parent="I7WBoEx8GMAR0eP6BGQ3-1" source="I7WBoEx8GMAR0eP6BGQ3-6" target="po_nBzVE3X979Q4hHAxm-1">
          <mxGeometry relative="1" as="geometry" />
        </mxCell>
        <mxCell id="po_nBzVE3X979Q4hHAxm-4" style="edgeStyle=orthogonalEdgeStyle;rounded=0;orthogonalLoop=1;jettySize=auto;html=1;entryX=0.525;entryY=1;entryDx=0;entryDy=0;entryPerimeter=0;" edge="1" parent="I7WBoEx8GMAR0eP6BGQ3-1" source="I7WBoEx8GMAR0eP6BGQ3-2" target="I7WBoEx8GMAR0eP6BGQ3-34">
          <mxGeometry relative="1" as="geometry" />
        </mxCell>
        <mxCell id="I7WBoEx8GMAR0eP6BGQ3-13" style="edgeStyle=orthogonalEdgeStyle;rounded=0;orthogonalLoop=1;jettySize=auto;html=1;" parent="1" source="I7WBoEx8GMAR0eP6BGQ3-5" target="I7WBoEx8GMAR0eP6BGQ3-6" edge="1">
          <mxGeometry relative="1" as="geometry" />
        </mxCell>
        <mxCell id="I7WBoEx8GMAR0eP6BGQ3-5" value="User" style="sketch=0;pointerEvents=1;shadow=0;dashed=0;html=1;strokeColor=none;fillColor=#505050;labelPosition=center;verticalLabelPosition=bottom;verticalAlign=top;outlineConnect=0;align=center;shape=mxgraph.office.devices.laptop;" parent="1" vertex="1">
          <mxGeometry x="30" y="370" width="58" height="34" as="geometry" />
        </mxCell>
        <mxCell id="I7WBoEx8GMAR0eP6BGQ3-16" style="edgeStyle=orthogonalEdgeStyle;rounded=0;orthogonalLoop=1;jettySize=auto;html=1;entryX=0;entryY=0.5;entryDx=0;entryDy=0;entryPerimeter=0;" parent="1" source="I7WBoEx8GMAR0eP6BGQ3-5" target="I7WBoEx8GMAR0eP6BGQ3-12" edge="1">
          <mxGeometry relative="1" as="geometry">
            <Array as="points">
              <mxPoint x="180" y="387" />
              <mxPoint x="180" y="219" />
            </Array>
          </mxGeometry>
        </mxCell>
      </root>
    </mxGraphModel>
  </diagram>
</mxfile>
